# xmcd CD database file
#
# Track frame offsets:
#	150
#	12028
#	26085
#	36282
#	44741
#	58136
#	69923
#	79174
#	93375
#	109900
#	123567
#	138132
#	151501
#	162002
#	175999
#	192714
#	209411
#
# Disc length: 3039 seconds
#
# Revision: 1
# Processed by: cddbd v1.5.2PL0 Copyright (c) Steve Scherf et al.
# Submitted via: CDex 1.70beta2
#
DISCID=e80bdd11
DTITLE=Flying W Wranglers - Pickin' in the Rockies
DYEAR=2008
DGENRE=Country
TTITLE0=Say Old Man
TTITLE1=Wrangler Ride
TTITLE2=Black Mountain Rag
TTITLE3=Stars and Stripes
TTITLE4=Lake Pontchartrain Waltz
TTITLE5=Red Haired Boy
TTITLE6=Cowboy Boogie
TTITLE7=El Comanchero
TTITLE8=Somewhere Over the Rainbow
TTITLE9=When You and I Were Young Maggie
TTITLE10=Ashokan Farewell
TTITLE11=Jessica
TTITLE12=Gravel Walk/Wizard's Walk
TTITLE13=Alabama Jubilee
TTITLE14=Don't Fence Me In
TTITLE15=Bluegrass in the Backwoods
TTITLE16=Orange Blossom Special
EXTD=YEAR: 2008
EXTT0=
EXTT1=
EXTT2=
EXTT3=
EXTT4=
EXTT5=
EXTT6=
EXTT7=
EXTT8=
EXTT9=
EXTT10=
EXTT11=
EXTT12=
EXTT13=
EXTT14=
EXTT15=
EXTT16=
PLAYORDER=
